<?xml version="1.0" encoding="utf-8"?>
<!-- Generator: Adobe Illustrator 21.0.0, SVG Export Plug-In . SVG Version: 6.00 Build 0)  -->
<svg version="1.1" id="Layer_1" xmlns="http://www.w3.org/2000/svg" xmlns:xlink="http://www.w3.org/1999/xlink" x="0px" y="0px"
	 width="2000px" height="2000px" viewBox="0 0 2000 2000" style="enable-background:new 0 0 2000 2000;" xml:space="preserve">
<style type="text/css">
	.st0{fill:#FFFFFF;}
	.st1{fill:#82CEC2;}
	.st2{fill:#95DBCD;}
	.st3{fill:url(#SVGID_1_);}
	.st4{fill:url(#SVGID_2_);}
	.st5{fill:url(#SVGID_3_);}
	.st6{fill:url(#SVGID_4_);}
	.st7{fill:url(#SVGID_5_);}
	.st8{fill:url(#SVGID_6_);}
	.st9{fill:#1D1D4C;}
	.st10{fill:url(#SVGID_7_);}
	.st11{fill:url(#SVGID_8_);}
	.st12{fill:url(#SVGID_9_);}
	.st13{fill:url(#SVGID_10_);}
	.st14{fill:url(#SVGID_11_);}
	.st15{fill:#EA5774;}
	.st16{fill:#C6525A;}
	.st17{fill:#1D1D3D;}
	.st18{fill:#EADCDA;}
	.st19{fill:#D46F73;}
	.st20{fill:#D84467;}
	.st21{fill:#DD5078;}
	.st22{fill:#242263;}
	.st23{fill:#B24B55;}
	.st24{fill:url(#SVGID_12_);}
	.st25{fill:url(#SVGID_13_);}
</style>
<g>
	<rect class="st0" width="2000" height="2000"/>
	<g>
		<path class="st1" d="M1900.3,1469.2c-11.3-53.2-27.6-105.2-41.2-157.8c-14-54.1-23.5-108.6-26.4-164.5
			c-6-115.1,9.4-229.7,18.7-344.2c8.6-105,11.6-212.1-10.3-315.9c-19.6-92.6-60.2-187.4-137.1-246.4c-37.7-29-83.6-44.6-131.2-43.4
			c-57.5,1.5-113.5,20.9-169.5,32.7c-112.8,23.6-227.8,35.7-343,36.1c-103.8,0.4-207.2-9.8-310.9-11.7
			c-99.9-1.9-202.3,3.5-297.7,35.8c-90,30.4-169.4,84.5-230.5,157.4c-61.5,73.4-104.1,161.3-125.2,254.6
			c-24.4,107.6-22,220,0.2,327.8c21.9,106.5,65.7,207.2,84.9,314.3c9.3,51.6,11.6,104.6,1.9,156.3c-9.1,48.1-24.4,95.1-28.7,144.1
			c-4.1,46.1,5.3,93.1,37.8,127.7c29.4,31.2,71.1,44.5,112.5,49.7c45.5,5.7,91.4,1,136.9-3.1c58.7-5.2,117.3-11,175.8-17.2
			c21.2-2.3,42.3-4.6,63.4-7c1.2,4.6,4.4,8.6,10.2,10.4c111.9,35.7,227.9,10.1,340,45c107.6,33.5,215.4,49.6,328.2,58
			c105,7.8,186.7,29.5,283.6-13.4c83.1-36.8,176.6-75.9,225.4-136.6c28.8-35.8,37.3-83.6,43-129.2
			C1917.9,1575.3,1911.4,1521.3,1900.3,1469.2z"/>
		<path class="st2" d="M1716.4,1445.3c-28-91.5-42-182.6-42.8-277.8c-0.4-46.4,2.7-96.7,8.9-140.3c6.7-47.4,16.4-94.4,26.4-141.2
			c20.2-94,42.3-188.7,45-285.2c2.2-80.6-6.1-175.3-63.3-237.7c-29.9-32.6-72.6-48.2-116.4-46.9c-47.9,1.4-93.8,18.2-139.7,30
			c-94.2,24.2-187.1,38.6-283.6,44.1c-48.2,2.7-96.5,3.2-144.7,1.3c-24.4-0.9-48.7-2.5-73-4.6c-11.9-1-23.8-2.2-35.7-3.6
			c-5.7-0.6-11.4-1.3-17.1-2c-2.8-0.4-5.7-0.7-8.5-1.1c-0.9-0.1-6.2-0.8-6-0.8C776,367.4,685.4,350,594.6,363.2
			c-43.2,6.3-85.4,21.1-122.1,44.9c-35.6,23.2-66.2,53.3-92.6,86.4c-27.6,34.6-52.1,71.7-74.6,109.8c-23.7,40-44.6,81.5-61.2,124.9
			c-16.3,42.7-27.4,87.3-31.3,133c-4,46.6,1.8,93,13.5,138.1c11.8,45.4,28.4,89.4,40.2,134.8c12,46.4,16.3,91,16,139.5
			c-0.6,97.7-19,194.3-19.7,292c-0.3,39.7,4,83,25.9,117.2c23.6,36.9,63,55.5,106,57.5c38,1.8,76.1-8.1,112.1-19.4
			c14.8-0.1,29.6,0.5,44.3,1.5c23.6,1.7,42,4,64.4,7.9c45.9,7.9,91,19.7,135.7,32.9c91,27,180.2,59.8,272.6,82
			c95.1,22.9,192.6,36.7,290.3,41.3c48.8,2.3,97.6,2.2,146.4-0.2c47.4-2.4,95.3-6.1,142.1-14.2c42.5-7.4,85-22,116.8-52.3
			c29.3-28,46.6-67.3,52.5-107C1786,1619.3,1743.4,1533.3,1716.4,1445.3z"/>
		<linearGradient id="SVGID_1_" gradientUnits="userSpaceOnUse" x1="1709.2472" y1="1205.7426" x2="1518.3715" y2="1396.6184">
			<stop  offset="0" style="stop-color:#3843A5"/>
			<stop  offset="1" style="stop-color:#D84467"/>
		</linearGradient>
		<path class="st3" d="M1752.7,1218.7c-75.2,16.6-147.7,45.3-214.2,84.1c-66.3,38.7-126.8,87.5-178.4,144.2
			c-29,31.9-55.3,66.3-78.3,102.8c-1.7,2.7,2.5,5.1,4.2,2.5c7.6-12.1,15.7-24,24-35.7c-0.1,1.3,0.7,2.6,2.3,2.6
			c73-1.6,145.1-20.7,210.2-53.8c65.3-33.2,123.6-80.3,169.2-137.6c25.7-32.3,47.2-67.7,63.7-105.5
			C1756.3,1220.3,1754.9,1218.2,1752.7,1218.7z"/>
		<linearGradient id="SVGID_2_" gradientUnits="userSpaceOnUse" x1="1717.2351" y1="1406.3969" x2="1462.1534" y2="1542.239">
			<stop  offset="0" style="stop-color:#3843A5"/>
			<stop  offset="1" style="stop-color:#D84467"/>
		</linearGradient>
		<path class="st4" d="M1917.8,1330.1c-87.2,38-183.3,43.5-276.3,57.2c-85.4,12.5-172.6,33.4-240.9,89
			c-30.4,24.8-55.7,55.8-71.3,91.8c-0.5-0.1-0.9-0.1-1.4-0.2c-2.9-0.4-3.1,3.9-0.5,4.8c-0.7,1.8-1.5,3.7-2.2,5.6
			c-1.1,2.9,3.6,4.2,4.7,1.3c0.8-2.1,1.6-4.2,2.4-6.2c88.2,10.6,178.2,3.9,264-18.9c84.3-22.4,167.2-60.1,236-114.1
			c36.7-28.8,69.1-64.1,88.7-106.9C1922.2,1331.2,1920.1,1329.1,1917.8,1330.1z"/>
		<linearGradient id="SVGID_3_" gradientUnits="userSpaceOnUse" x1="1436.2722" y1="972.9526" x2="1436.2722" y2="1567.2214">
			<stop  offset="0" style="stop-color:#3843A5"/>
			<stop  offset="1" style="stop-color:#D84467"/>
		</linearGradient>
		<path class="st5" d="M1572.8,975.8c0.1-2.1-2.9-4.2-4.3-1.9c-43.7,71.2-86.5,143-123.8,217.8c-37.2,74.5-68.8,152-89.8,232.7
			c-4.6,17.6-8.6,35.3-12.1,53.1c-13.4,7.7-27.3,14.6-41.7,20.3c-2.9,1.2-1.1,5.7,1.8,4.5c13.4-5.3,26.2-11.5,38.7-18.5
			c-5,26.7-8.7,53.7-11,80.8c-0.3,3.1,4.6,3.8,4.8,0.7c2.4-28.5,6.3-56.7,11.7-84.7c49-28.9,90.2-70.3,122.2-117.5
			c47.1-69.5,73.3-150.5,87.5-232.7C1565.7,1079.3,1570.1,1027.6,1572.8,975.8z"/>
		
			<linearGradient id="SVGID_4_" gradientUnits="userSpaceOnUse" x1="419.7459" y1="886.7052" x2="419.7459" y2="1299.6163" gradientTransform="matrix(0.9892 -0.1464 0.1464 0.9892 -197.7921 61.5828)">
			<stop  offset="0" style="stop-color:#3843A5"/>
			<stop  offset="1" style="stop-color:#D84467"/>
		</linearGradient>
		<path class="st6" d="M540.8,1424.8c-21,11.1-45.7,7.7-66.1-3.3c-14.5-7.8-25.9-19.1-34.8-32.3c23.3-5.9,45.9-23.1,44.6-49.5
			c-0.5-9.7-6.2-24.6-18.3-22.7c-6.3,1-11,6.1-14.7,10.8c-3.9,5-7.3,10.5-9.9,16.2c-5.2,11.3-7.6,23.7-7.1,36.1
			c-2.9-5.2-5.5-10.7-7.7-16.3c-10.4-25.9-14.3-53.9-18.5-81.3c-0.7-4.6-1.4-9.2-2.1-13.9c13.1,1.6,26-4,36.9-11.5
			c7.1-4.9,14.2-10.2,20.5-16c5.3-4.9,10-10.7,11.8-17.9c3.7-14-6.2-26.3-20.3-27.7c-15-1.5-29.1,8.7-38.3,19.6
			c-7.1,8.4-12,18.5-14.3,29.2c-2.8-18.5-5.6-37.1-8.4-55.6c-1.8-12.2-3.7-24.4-5.5-36.6c16.6-2,34-4.6,48.6-13.3
			c14.2-8.4,23.6-22.8,24.7-39.4c0.9-13.6-4.7-36.1-22.3-34.4c-8.3,0.8-15.7,6.5-21.8,11.7c-6.2,5.3-11.7,11.5-16.4,18.2
			c-7.8,11.2-13.1,24-15.7,37.4c-1.8-12.2-3.7-24.4-5.5-36.5c-3-19.7-5.5-39.6-8.7-59.3c0.5-0.4,1-0.8,1.5-1.2
			c0.4-0.3,0.6-0.7,0.7-1.1c17.2,2.1,34.9-3.1,48.3-14c13.7-11.2,21.6-28.1,22.2-45.8c0.3-8.9-1.2-17.8-4.5-26.1
			c-2.8-6.9-7.1-15.1-15-16.9c-8.9-2-17.9,4.3-24.2,9.9c-6.7,5.9-12.1,13.2-16.2,21.1c-10.8,20.5-12.5,44-13.8,66.8
			c-1.4-8.1-2.9-16.2-4.7-24.2c-5.6-25.5-14.9-50.9-32.9-70.4c-15.3-16.5-37.4-29.3-60.7-27.2c-11,1-21.8,6.1-27.3,16.1
			c-5,9.1-4.7,20.7,3,28.2c8,7.9,20.3,9.4,31,10.5c14.5,1.5,29.2,1.5,43.7-0.1c7.3-0.8,14.5-2,21.7-3.5c0.3-0.1,0.6-0.2,0.8-0.4
			c11.3,20.3,16.5,43.6,20.4,66.3c0.5,3.2,1.1,6.4,1.6,9.6c-0.2-0.3-0.4-0.5-0.7-0.8c0-0.3-0.1-0.5-0.2-0.8
			c-7-15.1-20.2-26.9-35.6-33c-15-5.9-34.4-6.6-47.1,4.8c-10.1,9.1-15.2,25.2-7.8,37.5c8,13.4,25.5,16.1,39.7,15.5
			c18.9-0.8,37.2-7.4,52.5-18.4c5.6,34.5,10.7,69,15.7,103.6c-8.5-7.4-17.9-13.9-27.9-19.1c-8.7-4.6-24.5-13.2-32.3-2.5
			c-6.1,8.3-1.4,20.6,4,27.9c6.5,8.9,16.9,15.2,27.9,16c11.1,0.9,22-3.2,30-10.8c2.3,16.1,4.7,32.2,7.1,48.3
			c2.5,16.9,5.1,33.8,7.6,50.8c-4.6-9.2-11.1-17.4-19-24c-9.7-8.2-23.3-15.8-36.3-16c-13.5-0.3-18.8,12.1-16,23.9
			c3,12.5,12.3,23.4,23.5,29.3c14.3,7.6,31.9,6.9,45.8-1.1c0.1,0.6,0.5,1.1,1.2,1.4c1,0.3,2,0.6,3,0.9c1.2,8.3,2.5,16.5,3.8,24.8
			c3.9,25.8,8.4,51.9,18.7,76c1.7,4,3.6,8,5.7,11.8c-10.1-4.9-20.9-8.5-32-10.6c-9.5-1.8-26.7-5.9-32.7,4.7
			c-5.4,9.6,2.6,23.3,8.5,30.8c7.5,9.5,18.8,13.3,30.6,10.4c13.7-3.3,23.5-13.6,32.3-24c8.1,12,18.3,22.4,30.9,30.3
			c17.8,11,39.8,17.1,60.5,11.9c5-1.2,9.7-3.1,14.2-5.5C544.7,1427.3,543.1,1423.6,540.8,1424.8z"/>
		
			<linearGradient id="SVGID_5_" gradientUnits="userSpaceOnUse" x1="279.2179" y1="1263.8596" x2="279.2179" y2="1566.2965" gradientTransform="matrix(0.8059 -0.5921 0.5921 0.8059 -816.9327 468.6233)">
			<stop  offset="0" style="stop-color:#3843A5"/>
			<stop  offset="1" style="stop-color:#D84467"/>
		</linearGradient>
		<path class="st7" d="M469.3,1610c-9.8,14.4-26.9,20.7-43.9,20.5c-12-0.1-23.3-3.5-33.6-9c13.1-11.8,21.8-30.7,11.9-47.3
			c-3.6-6.1-12.4-13.8-19.7-8.4c-3.7,2.8-5,7.7-5.8,12.1c-0.9,4.6-1.1,9.3-0.8,13.9c0.5,9.1,3.2,18,7.8,25.8
			c-3.7-2.4-7.2-5.1-10.6-7.9c-15.6-13.2-27.7-30-39.8-46.3c-2-2.8-4.1-5.5-6.1-8.3c9-3.4,15.4-11.5,19.9-20
			c2.9-5.6,5.7-11.5,7.8-17.4c1.8-5,2.8-10.4,1.5-15.6c-2.4-10.3-13-14.9-22.7-11c-10.2,4.1-15.9,15.6-18,25.8
			c-1.7,7.9-1.4,16.1,0.8,23.8c-8.2-11-16.3-22.1-24.5-33.1c-5.4-7.3-10.7-14.6-16.1-21.8c10.1-7,20.4-14.6,26.9-25.2
			c6.3-10.3,7.5-22.8,2.5-33.9c-4.1-9.1-15.4-21.7-26.3-14.6c-5.1,3.3-8,9.6-10.1,15.1c-2.2,5.6-3.7,11.5-4.4,17.4
			c-1.2,9.9-0.3,20,2.7,29.6c-5.4-7.3-10.7-14.5-16.1-21.8c-8.7-11.7-17.1-23.8-25.9-35.4c0.2-0.4,0.4-0.8,0.6-1.3
			c0.1-0.3,0.2-0.6,0.1-0.9c11.8-4.5,21.5-13.9,26.4-25.6c5-12,4.4-25.6-1.3-37.2c-2.9-5.9-6.9-11.1-11.9-15.3
			c-4.2-3.5-9.8-7.3-15.5-5.8c-6.4,1.8-10.1,8.9-12.3,14.7c-2.3,6.1-3.3,12.7-3.3,19.2c0,17,7,32.8,13.9,48
			c-3.7-4.8-7.4-9.5-11.3-14.1c-12.4-14.6-27.1-27.9-45.4-34.3c-15.6-5.4-34.3-6.1-48.6,3.2c-6.8,4.4-12,11.4-12.1,19.8
			c-0.1,7.6,4,15,11.6,17.3c7.9,2.4,16.4-0.8,23.7-3.8c9.9-4,19.4-9,28.3-15c4.5-3,8.7-6.2,12.9-9.7c0.2-0.2,0.3-0.3,0.4-0.5
			c14.2,9.3,25.6,22.6,35.9,36c1.5,1.9,2.9,3.8,4.3,5.7c-0.2-0.1-0.5-0.2-0.7-0.3c-0.1-0.2-0.2-0.3-0.4-0.5
			c-9.7-7.4-22.3-10.5-34.3-9.1c-11.7,1.3-24.6,7.5-28.8,19.3c-3.4,9.4-1.2,21.5,7.8,27c9.8,5.9,22,1.7,31-3.6
			c11.9-7,21.6-17.5,27.7-29.9c15.4,20.4,30.6,41,45.7,61.7c-8.1-1.9-16.3-2.8-24.6-2.8c-7.2,0-20.4-0.1-21.8,9.4
			c-1.1,7.5,6.2,13.8,12.1,16.7c7.3,3.6,16.1,4,23.6,0.8c7.5-3.2,13.1-9.6,15.7-17.3c7,9.6,14.1,19.2,21.1,28.8
			c7.4,10.1,14.9,20.2,22.3,30.2c-6.1-4.4-13.1-7.5-20.5-9.1c-9.1-2-20.5-2.2-29,2.1c-8.8,4.5-8.1,14.3-2.2,20.9
			c6.2,7.1,16,10.9,25.3,10.9c11.8,0,23-6.5,29.2-16.4c0.3,0.3,0.7,0.6,1.3,0.5c0.8-0.1,1.5-0.3,2.2-0.5c3.6,4.9,7.3,9.8,10.9,14.7
			c11.4,15.3,23.2,30.7,38.1,42.8c2.5,2,5.1,3.9,7.7,5.7c-8.3,0.3-16.4,1.6-24.3,4.1c-6.8,2.1-19.3,5.3-19.5,14.3
			c-0.2,8.1,9.7,14.2,16.1,17c8.1,3.6,16.7,2.2,23.4-3.7c7.7-6.8,10.5-16.9,12.7-26.6c9.4,5,19.5,8.3,30.4,9
			c15.3,1,31.6-2.6,43.2-13c2.8-2.5,5.2-5.3,7.3-8.4C472.7,1610.2,470.4,1608.4,469.3,1610z"/>
		<linearGradient id="SVGID_6_" gradientUnits="userSpaceOnUse" x1="1390.323" y1="342.1038" x2="1390.323" y2="793.3925">
			<stop  offset="0" style="stop-color:#3843A5"/>
			<stop  offset="1" style="stop-color:#D84467"/>
		</linearGradient>
		<path class="st8" d="M1266.4,914.2c5.3,1.9,10.8,3.1,16.4,3.7c23.4,2.3,46.5-7.9,64.1-22.7c12.5-10.6,21.9-23.6,28.8-38
			c11.3,9.9,23.6,19.6,39.1,21c13.3,1.2,25.1-4.7,31.7-16.3c5.2-9.1,11.8-25.4,4.3-35c-8.2-10.7-26.3-3.4-36.4,0.1
			c-11.8,4.1-22.9,9.8-33.2,16.8c1.6-4.5,3-9.1,4.3-13.8c7.3-28,8-57.2,8.1-86c0-9.2,0.1-18.4,0.1-27.6c1-0.4,2.1-0.9,3.1-1.4
			c0.8-0.4,1.1-1,1.1-1.7c16.5,6.5,35.8,4.4,50.1-6.2c11.3-8.3,19.7-21.7,20.9-35.8c1.1-13.3-6.7-25.9-21.4-23.5
			c-14.1,2.4-27.8,12.9-37,23.4c-7.6,8.5-13.3,18.5-16.8,29.3c0-18.9,0.1-37.7,0.1-56.6c0-17.9,0-35.9,0-53.8
			c9.9,6.9,22.5,9.6,34.5,6.9c11.9-2.7,22.3-11.2,27.9-22c4.6-8.9,7.8-23-0.2-31.1c-10.2-10.4-26,1.6-34.8,8
			c-10.1,7.3-19.3,15.9-27.4,25.4c-0.1-38.5-0.2-77.1,0.4-115.6c18.4,9.5,39.5,13.8,60.2,11.6c15.7-1.7,34.2-7.5,40.8-23.4
			c6.1-14.6-2.1-31.3-14.6-39.7c-15.7-10.4-36.8-6.5-52.2,2.3c-15.9,9.1-28.4,24.1-33.5,41.7c-0.1,0.3-0.1,0.6-0.1,0.9
			c-0.2,0.3-0.4,0.6-0.6,0.9c0.1-3.6,0.1-7.2,0.2-10.8c0.5-25.4,2.5-51.7,11.5-75.7c0.3,0.1,0.6,0.2,1,0.3
			c8.1,0.5,16.2,0.6,24.2,0.3c16.1-0.7,32.1-3,47.7-7c11.5-2.9,24.6-6.6,32.1-16.5c7.2-9.5,5.6-22.1-1.3-31.3
			c-7.5-10-20.2-13.8-32.4-13.2c-25.7,1.5-47.8,18.9-61.8,39.4c-16.5,24.2-22.6,53.3-24.5,82.1c-0.6,9-1,18.1-1.2,27.1
			c-5.1-24.6-10.8-50-25.9-70.6c-5.8-7.9-12.8-15-21.1-20.4c-7.8-5-18.7-10.5-28-6.9c-8.3,3.2-11.7,12.9-13.7,20.8
			c-2.3,9.5-2.5,19.5-0.8,29.2c3.5,19.2,14.9,36.3,31.6,46.3c16.4,9.8,36.6,12.6,55,7.5c0.2,0.4,0.5,0.8,0.9,1
			c0.6,0.4,1.2,0.7,1.8,1.1c-0.3,22.1,0.2,44.2,0.1,66.1c0,13.6-0.1,27.2-0.1,40.8c-4.9-14.2-12.8-27.3-23.1-38.3
			c-6.2-6.6-13.2-12.4-20.8-17.2c-7.5-4.7-16.5-9.8-25.7-9.3c-19.5,1.1-22,26.5-18.8,41.2c3.8,17.9,16.5,32.1,33.3,39
			c17.3,7.1,36.7,7.1,55.1,6.6c0,13.6-0.1,27.2-0.1,40.9c-0.1,20.7-0.1,41.3-0.2,62c-4.3-11.3-11.2-21.5-20.3-29.6
			c-11.7-10.4-28.9-19.3-44.9-15.2c-15.2,3.8-24,18.8-17.7,33.6c3.2,7.5,9.2,13.1,15.8,17.6c7.8,5.4,16.4,10,25,14.2
			c13.1,6.4,28,10.4,42.1,6.5c0,5.2,0,10.3,0,15.5c-0.1,30.6,0.1,61.8-7,91.7c-1.6,6.5-3.5,12.9-5.8,19.1
			c-1.5-13.6-6.1-26.7-13.6-38.3c-3.8-5.9-8.3-11.3-13.4-16.1c-4.8-4.5-10.8-9.4-17.8-9.4c-13.6-0.1-17.4,17.2-16.3,27.8
			c2.8,29,30.2,44.2,56.6,46.8c-7.6,15.9-18.2,30-32.8,40.9c-20.4,15.3-46.8,23-71.6,14.2C1264.9,909,1263.7,913.3,1266.4,914.2z"/>
		<g>
			<path class="st9" d="M766.5,745.3c0,6.6-87.6,216.7-87.6,216.7l-76.8,118.6c0,0-46.9,97-14.8,136.8s115.2,80.9,200.7,40.4
				s107.2,42.4,190.4,37.6c83.2-4.8,133.2,4,179.6-37.6s74,18.5,118.4,0.4c44.4-18,63.6-184.8,66-188.4
				c2.4-3.6-58.8-130.9-58.8-130.9l-163.2-274.8l-293.6-28.7L766.5,745.3z"/>
			<linearGradient id="SVGID_7_" gradientUnits="userSpaceOnUse" x1="1028.4713" y1="1629.5323" x2="1028.4713" y2="1174.3269">
				<stop  offset="0" style="stop-color:#E28383"/>
				<stop  offset="1" style="stop-color:#C6525A"/>
			</linearGradient>
			<path class="st10" d="M1571.4,1488.9c-59.3-61.5-182.4-43.9-276.1-84.1c-69.4-29.8-145.7-21.8-149-276.5l-294.5,44.5
				c0,0,40.6,142.3,15.2,158.8s-266.9,6.1-320.9,24.3c-76.4,25.7-111.1,217.4-78.1,455.6c18.5,133.1,29.2,176.3,35.1,188.5h13.7l0,0
				h971.8C1488.7,2000,1671.7,1593,1571.4,1488.9z"/>
			<linearGradient id="SVGID_8_" gradientUnits="userSpaceOnUse" x1="1025.4938" y1="1809.5901" x2="1025.4938" y2="2069.4497">
				<stop  offset="0" style="stop-color:#242263"/>
				<stop  offset="1" style="stop-color:#2C3290"/>
			</linearGradient>
			<path class="st11" d="M458.2,1567.5c-5.5,70.3-2.7,153.8,9.8,243.9c18.5,133.1,29.2,176.3,35.1,188.5h6.3h12.1h967.2
				c0,0,83.5-185.7,106.8-338.4C1106.8,1859.3,503.1,1588.3,458.2,1567.5z"/>
			<linearGradient id="SVGID_9_" gradientUnits="userSpaceOnUse" x1="1011.1954" y1="1903.7371" x2="1011.1954" y2="1980.1085">
				<stop  offset="0" style="stop-color:#D84467"/>
				<stop  offset="1" style="stop-color:#EA5774"/>
			</linearGradient>
			<path class="st12" d="M924.7,2000h-18.3c-19.1-68.9-28.7-140.3-28.4-211.8c0-11.4,17.7-11.4,17.6,0
				C895.4,1859.9,905.2,1931.1,924.7,2000z M846.3,1792.3c-0.8-4.7-6.6-7.3-10.9-6.2c-5,1.4-6.9,6.1-6.2,10.9
				c11.1,67.7,22.2,135.3,33.3,203h17.8C869,1930.8,857.7,1861.6,846.3,1792.3z M1034.6,1826.4c-1-11.2-18.6-11.3-17.6,0
				c4.9,57.9,9.9,115.7,14.8,173.6h17.6C1044.4,1942.1,1039.5,1884.3,1034.6,1826.4z M1087.3,1846c-0.8-11.3-18.5-11.3-17.6,0
				c3.9,51.5,9.8,102.9,17.6,154h17.8C1097.1,1948.9,1091.2,1897.5,1087.3,1846z M983.4,1818.9c-0.7-4.7-6.7-7.3-10.9-6.2
				c-5.1,1.4-6.8,6.1-6.2,10.9c8.2,58.8,16.4,117.6,24.7,176.5h17.7C1000.3,1939.6,991.9,1879.2,983.4,1818.9z M938.6,1818
				c0.2-11.4-17.5-11.4-17.6,0c-0.9,61.7,8.5,123.4,27.6,182h18.6C947.4,1941.5,937.7,1879.9,938.6,1818z M546.9,1992.5
				c-11.5-73.2-17.7-147.2-18.6-221.3c-0.2-21.3,0-42.7,0.6-64c0.3-11.4-17.3-11.3-17.6,0c-2.2,75.6,1,151.3,9.9,226.4
				c2.5,21.3,5.4,42.5,8.8,63.6c0.2,1,0.6,2,1.2,2.8h14.4C546.9,1997.9,547.3,1995.2,546.9,1992.5z M605.3,1763.4
				c0.3-11.4-17.3-11.3-17.6,0c-2.3,79.3,4.1,158.7,18.8,236.6h17.9C609.4,1922.1,603,1842.7,605.3,1763.4z M560.1,1790.6
				c-0.6-21.7-0.5-43.5,0.1-65.2c0.4-11.4-17.3-11.3-17.6,0c-2.4,77,3.3,154.2,16.9,230c2.7,14.9,5.7,29.8,9,44.6h18.1
				C571,1931.2,562.1,1861.1,560.1,1790.6z M1423.9,1815.3c0.8-4.7-1.2-9.5-6.2-10.9c-4.2-1.2-10.1,1.4-10.9,6.2
				c-10.3,63.8-24,127-41,189.4h18.3C1400.6,1939.2,1413.9,1877.5,1423.9,1815.3z M1468.6,1822.2c2.2-11.1-14.8-15.8-17-4.7
				c-12.3,61.6-28,122.6-46.9,182.5h18.5C1441.4,1941.6,1456.6,1882.3,1468.6,1822.2z M1511.4,1842.1c3.2-10.9-13.9-15.6-17-4.7
				c-15.7,54.2-31.3,108.4-47,162.6h18.4C1481,1947.4,1496.2,1894.8,1511.4,1842.1z M1367,1819.7c0.8-11.3-16.9-11.3-17.6,0
				c-4.2,60.6-12.2,120.8-23.9,180.3h17.9C1354.9,1940.4,1362.8,1880.2,1367,1819.7z M1305.9,1818c0.8-11.3-16.8-11.3-17.6,0
				c-4.3,60.7-8.6,121.3-12.9,182h17.6C1297.3,1939.3,1301.6,1878.7,1305.9,1818z M1129.2,1851.1c-0.6-11.3-18.2-11.4-17.6,0
				c2.5,49.9,8.1,99.7,16.8,148.9h17.9C1137.3,1950.8,1131.7,1901.1,1129.2,1851.1z M1174.9,1833.8c-0.7-4.7-6.7-7.3-10.9-6.2
				c-5.1,1.4-6.8,6.1-6.2,10.9c7.7,53.7,13.8,107.5,18.5,161.5h17.6C1189.2,1944.4,1182.8,1889,1174.9,1833.8z M1264.3,1828.3
				c2.5-11.1-14.5-15.8-17-4.7c-13.2,57.9-19.9,117.1-19.9,176.4h17.6C1245.1,1942.3,1251.5,1884.7,1264.3,1828.3z"/>
			<linearGradient id="SVGID_10_" gradientUnits="userSpaceOnUse" x1="973.0221" y1="970.1857" x2="834.6047" y2="500.4356">
				<stop  offset="0" style="stop-color:#E28383"/>
				<stop  offset="1" style="stop-color:#C6525A"/>
			</linearGradient>
			<path class="st13" d="M1032.8,592.3c-97.8-33-206.2-2.4-272.7,73.9c-31.1,35.6-58.5,81.7-61.4,134.7
				c-6.9,127.5,43.5,258.3,77.8,308.8c34.3,50.6,138.4,178,272.3,158.3c133.9-19.8,169.3-265,154.5-339.7s-38.9-284.5-159-331.8
				C1040.5,595,1036.6,593.6,1032.8,592.3z"/>
			<linearGradient id="SVGID_11_" gradientUnits="userSpaceOnUse" x1="996.0424" y1="1642.9261" x2="996.0424" y2="1877.5588">
				<stop  offset="0" style="stop-color:#3843A5"/>
				<stop  offset="1" style="stop-color:#2C3290"/>
			</linearGradient>
			<path class="st14" d="M458.2,1567.5l-157,257.1c0,0,133.4,88.2,227.2,28.7c72.5-46.1,132.2,53.3,229.4,15.4
				c86.8-33.8,203.1,10.6,240.6,43.7c37.5,33.1,156.5,71,229.3,2.6c72.8-68.4,185.3,0,244.8,15.4s165.4,22.7,218.4-33.1l-95.4-235.8
				C1595.5,1661.6,1071.7,1769.2,458.2,1567.5z"/>
			<g>
				<path class="st15" d="M1649.3,1794.6c-1,0.8-1.9,1.6-2.9,2.4c0,0-0.1,0.1-0.1,0.1c-1.3,1-2.6,2-4,2.9
					c-8.6,6.2-17.6,11.9-26.9,16.9c-4.2,2.3-8.5,4.5-12.8,6.5c-2.4,1.1-4.8,2.2-7.2,3.2c-0.1,0-0.1,0.1-0.2,0.1
					c-1.6,0.6-3.2,1.3-4.8,1.9c-9.9,3.8-20.1,7-30.4,9.5c-4.7,1.1-9.3,2.1-14,3c-2.6,0.5-5.3,0.9-7.9,1.3c0.1,0,0.1,0,0.2,0
					c-0.1,0-0.1,0-0.2,0c-0.1,0-0.1,0-0.2,0c-0.5,0.1-1.4,0.2-2,0.2c-0.6,0.1-1.2,0.1-1.8,0.2c-10.5,1.1-21.1,1.5-31.7,1.1
					c-5.1-0.2-10.2-0.5-15.3-1c-1.6-0.2-9.3-1.4-3.7-0.4c-2.7-0.5-5.4-0.9-8.1-1.4c-12.3-2.3-24.5-5.7-36.4-9.5
					c-24.9-7.9-49.2-17.8-74.5-24.5c-27-7.1-54.4-9.9-82-5.5c-24.4,3.9-47.4,14.3-69.6,24.7c-10.7,5-21.4,9.9-32.1,14.9
					c-0.2,0.1-0.3,0.1-0.4,0.2c0,0,0,0-0.1,0c-1,0.4-2.1,0.9-3.1,1.3c-2.8,1.1-5.6,2.2-8.4,3.2c-5.6,2-11.3,3.8-17.1,5.3
					c-2.9,0.7-5.8,1.4-8.7,1.9c-1.1,0.2-2.2,0.3-3.3,0.6c-0.1,0-0.1,0-0.2,0c0,0,0,0,0,0c-6.4,0.4-12.6,0.9-19,0.5
					c-2.4-0.1-4.8-0.3-7.2-0.6c-0.6-0.1-1.9-0.3-2.2-0.4c-1.6-0.3-3.2-0.6-4.8-0.9c-6.5-1.4-12.8-3.1-19.1-5.2
					c-2.8-0.9-5.5-1.9-8.2-2.9c-1.6-0.6-3.1-1.2-4.7-1.8c-0.3-0.1-2.2-0.9-3.1-1.3c-0.7-0.3-1.6-0.7-1.5-0.7
					c-1.5-0.7-3.1-1.4-4.6-2.1c-3.5-1.6-6.9-3.2-10.3-4.9c-11.8-5.7-23.4-11.8-35.1-17.7c-24.6-12.2-49.9-23.1-75.7-32.4
					c-102.6-37.1-212.9-47.9-320.9-34.5c-58.3,7.2-110.6,18.1-169.4,19.1c-12.3,0.2-24.5-0.1-36.8-1c-5.9-0.4-11.8-1-17.7-1.7
					c-0.1,0-0.7-0.1-1.3-0.2c-0.9-0.1-2.5-0.4-2.8-0.4c-3.5-0.5-7-1.1-10.5-1.8c-11.5-2.2-23-5.1-34.2-8.7c-1.7-0.5-3.3-1.1-5-1.7
					l-25.9,42.4c80.7,32.8,175.8,20.8,260.3,8.5c6.9-1,13.8-2,20.7-3c8.6-1.2,12.1-1.7,19.8-2.7c14.2-1.8,28.5-3.3,42.8-4.4
					c27.1-2,54.2-2.4,81.3-1c28.2,1.4,51.5,4.1,76.9,8.6c26.7,4.7,53.1,11.1,79.1,19.1c12.8,3.9,25.4,8.2,37.9,12.9
					c6,2.3,12.1,4.6,18,7.1c1.5,0.6,3,1.2,4.5,1.9c0.4,0.2,0.9,0.4,1.6,0.7c3.2,1.4,6.3,2.8,9.5,4.2c24.8,11.2,48.4,24.7,73.3,35.7
					c25.9,11.4,52.9,20.6,81.6,20.6c27.3,0,52.8-8.6,77.5-19.3c10.8-4.7,21.4-9.8,32.1-14.8c5.2-2.4,10.4-4.8,15.6-7.1
					c0.3-0.1,1.1-0.5,1.7-0.7c1-0.4,2-0.8,3-1.2c2.8-1.1,5.6-2.2,8.4-3.2c5.6-2,11.4-3.8,17.2-5.3c2.5-0.6,5.1-1.2,7.7-1.7
					c1.5-0.3,3-0.5,4.4-0.8c0.2,0,0.3-0.1,0.5-0.1c0.3,0,0.7-0.1,1.1-0.1c6.2-0.5,12.3-0.8,18.5-0.6c2.9,0.1,5.7,0.3,8.6,0.5
					c1.2,0.1,2.3,0.2,3.5,0.4c0.5,0.1,3,0.4,3.4,0.5c26.1,4.3,50.9,13.7,75.7,22.3c25.1,8.7,50.1,16.1,76.5,19.3
					c65.3,8.1,132.7-11.6,185.9-50L1649.3,1794.6z M960.4,1841.6C959.7,1841.3,959.1,1841,960.4,1841.6L960.4,1841.6z
					 M1595.9,1826.5C1597,1826.1,1598.3,1825.6,1595.9,1826.5L1595.9,1826.5z M1646.2,1797.2
					C1643.3,1799.5,1645.3,1797.9,1646.2,1797.2L1646.2,1797.2z"/>
				<path class="st15" d="M1538.1,1842.4c-2.7,0.3-2.8,0.3-2.2,0.2C1536.6,1842.6,1537.3,1842.5,1538.1,1842.4
					C1538.1,1842.4,1538.1,1842.4,1538.1,1842.4z"/>
			</g>
			<g>
				<path class="st16" d="M771.5,955.2l17.8-3.7l18.4-3.8l19.1-15l27.4-11.1l28-2.2C882.2,919.4,824.9,871.9,771.5,955.2z"/>
				<path class="st16" d="M1051,884.1l26.6-9.2l29.5-0.8l23.5,6.1l18.4-3.8l17.8-3.7C1084.6,817.6,1051,884.1,1051,884.1z"/>
				<g>
					<path class="st17" d="M894.3,925.2c-6.1-3.9-13.1-6.7-20.4-8.2c-1.8-0.4-3.7-0.6-5.6-0.8c-1.9-0.2-3.8-0.3-5.7-0.3
						c-3.8,0-7.6,0.4-11.4,1.1c-7.5,1.4-14.6,4.3-21.1,7.9c-3.2,1.8-6.3,3.9-9.2,6.1c-0.7,0.5-1.5,1.1-2.2,1.7
						c-0.7,0.6-1.4,1.2-2.1,1.8l-3.8,3.3c-0.6,0.5-1.2,1-1.8,1.5c-0.6,0.5-1.2,1-1.8,1.4c-1.2,0.9-2.4,1.8-3.7,2.7
						c-1.2,0.9-2.5,1.7-3.8,2.4l-2,1.1c-0.7,0.4-1.3,0.7-2,1c-5.4,2.7-11.2,4.5-17.4,5c-6.2,0.5-12.8-0.1-19.4-2.3
						c2.3,2.7,5.3,4.8,8.5,6.5c3.2,1.7,6.7,2.9,10.4,3.8c7.3,1.6,15.2,1,22.5-1.1c0.9-0.3,1.8-0.6,2.7-0.9l2.7-1
						c1.7-0.8,3.5-1.5,5.1-2.4c3.4-1.7,6.5-3.8,9.5-5.9c0.7-0.5,1.5-1.1,2.2-1.7l1.9-1.5c1.2-1,2.5-1.9,3.8-2.8
						c2.5-1.8,5.1-3.5,7.8-5c2.6-1.6,5.4-2.9,8.1-4.1c2.8-1.2,5.6-2.2,8.5-3c5.7-1.6,11.7-2.5,17.8-2.3c6.1,0.1,12.4,1.1,18.6,2.8
						c6.3,1.8,12.5,4.2,18.7,7.5c-1.9-3-4.3-5.6-6.9-8C900.3,929.4,897.4,927.2,894.3,925.2z"/>
					
						<ellipse transform="matrix(0.9789 -0.2046 0.2046 0.9789 -175.904 195.6604)" class="st17" cx="858.5" cy="948.7" rx="29.3" ry="29.3"/>
					
						<ellipse transform="matrix(0.9789 -0.2046 0.2046 0.9789 -173.92 197.4865)" class="st18" cx="868.3" cy="940" rx="10.8" ry="10.8"/>
				</g>
				<g>
					<path class="st17" d="M1139.9,876.7c-0.8-0.1-1.5-0.1-2.3-0.1l-2.2-0.3c-1.5-0.2-3-0.4-4.5-0.7c-1.5-0.3-3-0.7-4.5-1
						c-0.7-0.2-1.5-0.4-2.2-0.6c-0.7-0.2-1.5-0.4-2.2-0.7l-4.7-1.5c-0.9-0.3-1.7-0.5-2.6-0.8c-0.9-0.3-1.8-0.5-2.7-0.7
						c-3.6-0.8-7.2-1.5-10.9-1.9c-7.4-0.8-15.1-0.5-22.5,1.2c-3.7,0.9-7.4,2-10.8,3.5c-1.7,0.8-3.5,1.6-5.1,2.5
						c-1.6,0.9-3.3,1.9-4.8,3c-6.2,4.3-11.4,9.7-15.5,15.7c-2,3-3.8,6.1-5.2,9.4c-1.4,3.3-2.6,6.6-3.1,10.1
						c4.4-5.4,9.1-10.2,14.1-14.3c5-4.1,10.3-7.5,15.9-10c5.6-2.6,11.4-4.2,17.3-5c3-0.4,5.9-0.6,9-0.6c3,0,6,0.1,9.1,0.5
						c3,0.3,6.1,0.8,9.1,1.5c1.5,0.3,3.1,0.6,4.6,1l2.4,0.6c0.9,0.2,1.8,0.5,2.7,0.7c3.6,0.8,7.3,1.4,11.1,1.6
						c1.9,0.2,3.8,0.1,5.7,0.1l2.8-0.2c0.9-0.1,1.9-0.2,2.8-0.3c7.5-1,15-3.7,21.1-8c3-2.2,5.8-4.7,8-7.6c2.2-2.8,4.1-6,5.2-9.3
						c-5.2,4.7-11,7.9-16.9,9.9C1151.9,876.3,1145.9,877,1139.9,876.7z"/>
					
						<ellipse transform="matrix(0.9789 -0.2046 0.2046 0.9789 -161.4601 240.9059)" class="st17" cx="1084.5" cy="901.4" rx="29.3" ry="29.3"/>
					
						<ellipse transform="matrix(0.9789 -0.2046 0.2046 0.9789 -159.8763 242.8057)" class="st18" cx="1094.5" cy="894.7" rx="10.8" ry="10.8"/>
				</g>
			</g>
			<g>
				<path class="st19" d="M1057.8,1098.3l-28.5-13.4l-16.5,25.4l-25.4-16.5l-20.6,23.8l-12.6,13.7l-15.9,3.4
					c0,0,33.8,53.8,88.1,42.3c50.1-10.6,64.5-74.6,64.5-74.6l-15.9,3.4L1057.8,1098.3z"/>
				<path class="st20" d="M1057.8,1098.3l-28.5-13.4l-16.5,25.4l-25.4-16.5l-20.6,23.8l-12.6,13.7l-15.9,3.4
					c0,0,32.9,46.7,87.2,35.2c50.1-10.6,65.4-67.5,65.4-67.5l-15.9,3.4L1057.8,1098.3z"/>
				<path class="st0" d="M1010.5,1105.6l-24.4,5.2l-11.9,17.3c0,0,18.8,3.8,42-1.1c23.2-4.9,34.1-16,34.1-16l-16.4-10.3
					L1010.5,1105.6z"/>
				<path class="st21" d="M1015.3,1086.4c-3.8,4-9.7,5.4-14.9,3.4c-4.9-1.9-11.6-2.1-19.8,3c-18.8,11.6-23.9,38-42.4,41.9
					c0,0,35.2-1.9,45.8-12.2c10.6-10.4,29.3-9.5,29.3-9.5s16.8-8.4,30.7-3.3c13.9,5.2,46.8-7.4,46.8-7.4
					c-18.5,3.9-34.5-18.3-56.4-21.3C1024.7,1079.7,1018.9,1082.6,1015.3,1086.4z"/>
			</g>
			<path class="st22" d="M1360,1145.2c0.1-0.2,0.2-0.3,0.3-0.5c7.7-15.1,20.4-25.6,31.9-37.8c21.2-22.3,30.7-52.7,26.5-83.1
				c-4.3-31.5-23.2-55.3-48.9-72.8c-27.5-18.7-58-31.6-82.4-54.8c-0.4-0.4-0.8-0.8-1.3-1.3c-8.6-21.6-13.5-44.8-17.8-67.5
				c-6.8-35.5-12.4-71.5-26.9-104.8c-14.6-33.6-38.6-62.8-66.7-86.2c-53.9-44.9-120.2-67.7-187.7-83.5
				c-60.1-10.1-110.4-0.7-145.9,11.4c-18.4,7.4-36.5,15.7-53.7,25.2c-2.2,1.4-3.3,2.2-3.3,2.2s0-0.1,0-0.3
				c-32.1,18.2-61.2,41-83.8,71.6c-36.2,49-50.5,108.4-71.5,164.8c-6.7,13.4-14.4,26.3-23.2,38.5c-17.8,24.8-39.9,44.6-62.9,64.3
				c-20.9,17.9-41.8,37.7-51.2,64.3c-8.7,24.4-5.9,52.3,5.6,75.3c1.5,3.1,3.3,6.1,5.1,9c1.3,2.9,2.7,5.8,4.1,8.7
				c8.9,18.5,16.3,36.3,12.3,57.2c-3.9,19.8-13.2,38.2-16.6,58.1c-0.4,2.6-0.8,5.3-1,7.9c-2.5,9.2-3.7,18.6-2.5,28.1
				c2.3,18.8,14.6,34.3,31.6,42.4c34.9,16.6,85.3,5.5,109.3-25c4.4-5.6,7.9-11.8,10.4-18.4c11.1-8.2,21.2-17.8,27.7-29.9
				c9.4-17.5,7.8-36.1,0.1-53.8c-1.4-3.3-3-6.4-4.7-9.5c24.9-4.7,47-20.2,62.5-40.4c21.8-28.4,29.5-64.8,32.1-99.8
				c3-40.7-1-81.7,4.4-122.2c4.6-34.7,15-68.7,30.4-100.1c8.6-17.6,18.8-34.4,30.4-50.2c21.7-21.6,46.9-39.5,74.6-52.7
				c35.2-5.9,71.4,13,98.9,34.7c31.4,24.8,58.5,55,80.1,88.6c10.6,16.6,20,34,27.9,52c7.9,17.8,13.5,36.3,19.6,54.7
				c5.2,15.8,11.2,31.7,21.7,44.8c12.2,15.1,28.7,21.1,47.3,24.6c21.2,4,40.5,10.4,57.4,24.3c1.3,1,2.5,2.1,3.7,3.2
				c0.5,7.4-0.6,15-2.7,22c-5.7,18.6-17,35-21.7,53.9c-3.9,15.9-3.3,34.2,8.6,46.6c0.1,0.1,0.3,0.3,0.4,0.4
				c-1.8,6.6-3,13.3-3.5,20.2c-1.2,16.5,3.5,31.5,11.3,45.8c7.6,13.9,18.4,28.5,17.3,45.2c-0.4,5.5-3.6,11.9-8.3,15.7
				c0,0,12.8,15.7,32.3,25.7c9.2,18.4,29.2,30.6,50.8,27.2c13.6-2.1,26.2-10,34-21.3c9.2-13.3,10.1-30.7,6.5-46.1
				c-1.5-6.3-3.7-12.4-6.5-18.2c-2.5-8.5-6.5-16.6-10.7-24.4c-7.7-14.5-15.4-29-13.2-46C1358.7,1150.6,1359.3,1147.9,1360,1145.2z
				 M1304.6,921.3c13.8,9.8,28.8,17.6,43.4,26.1c14.3,8.4,28.4,17.4,39.8,29.6c11.1,11.9,18.4,26.5,21.6,42.5
				c3.1,15.3,2.2,31.4-2.3,46.3c-5,16.3-14.6,29-26.6,40.9c-2.4,2.3-4.7,4.7-6.9,7c0.8-1.6,1.7-3.2,2.5-4.8
				c7.6-14.4,15.7-29.3,18.8-45.5c3.4-18,0-35.7-9.1-51.5c-20.3-35.2-60-52.1-82.9-85.1c-2.9-4.2-5.5-8.5-7.9-12.9
				C1298.1,916.6,1301.3,919,1304.6,921.3z M707.6,1039.3c39.8-33.4,40.4-85.8,44.6-133.5c2.3-26.7,8.2-52.5,17.6-77.1
				c-9.8,34.5-12.9,69.7-13.1,105.7c-0.2,38.6-0.1,78.9-19.3,113.6c-8,14.5-19.2,27.4-33.7,35.6c-16.1,9.1-35.1,10.6-51.4,19
				c-0.9-4.1-1.3-8.3-0.8-12.5C663.4,1066.9,688.4,1055.4,707.6,1039.3z M545,939.7c22-19.1,43.5-37.6,61.4-60.7
				c-8.5,16.2-18.4,31.8-30.6,45.6c-15.6,17.6-35,31.1-51.7,47.5c-12,11.7-22.8,25.6-28.6,41.4c0.2-1.7,0.5-3.3,0.9-5
				C502.2,979.6,523.6,958.3,545,939.7z M596.1,1275.7c-30.2,9.7-76.5,6.1-87.6-29.3c2.1,3.5,4.7,6.9,7.9,9.9
				c13.8,13.2,34.1,19.3,52.9,17.7c23.8-1.9,45.2-13.1,65.1-25.5C625.2,1261.1,611.2,1270.8,596.1,1275.7z M668.5,1137.2
				c-5-8.7-10.2-17.2-13.8-26.5c8.8-4.7,19.2-7.4,28.2-10c15.3-4.5,29.2-10.7,41-21.6c10.7-9.9,19-22.3,25-35.5
				c3.7-8.1,6.6-16.4,8.7-24.8c-2.4,20.5-7,40.6-16,59.3C727.6,1107.4,701,1132.4,668.5,1137.2z M1169.6,957.1
				c-14-11.8-21.1-29.6-26.8-46.5c-6.2-18.4-11.6-36.8-19.2-54.7c-8.1-19-17.6-37.4-28.6-54.8c-21.9-34.6-49.3-65.9-81.3-91.5
				C994.1,694,971,680,946.8,673.7c43.1-0.6,85.5,19.3,116.6,48.8c39.5,37.3,62.1,86.7,80,137c8.5,23.7,17,48,31,69.1
				c14,21,32.6,34.7,54.4,46.8c2.1,1.2,4.2,2.3,6.3,3.5c-2-0.8-4-1.6-6-2.2C1209.4,969.9,1186.3,971.2,1169.6,957.1z M1247.4,1112.5
				c-6.2-18.4,2.6-38,10.3-54.4c6-12.8,12.6-28.3,14.2-43.4c1.5,1.7,3,3.4,4.5,5.2c0.1,0.4,0.3,0.9,0.4,1.3
				c7.1,27.8-8.4,56.2-18.8,81c-2.4,5.8-4.7,11.7-6.7,17.6C1249.6,1117.5,1248.3,1115,1247.4,1112.5z M1368.9,1290.5
				c-11.2,10.2-28.1,14.1-42.3,8.4c-6.1-2.5-11.4-6.4-15.7-11.3c11.4,3.4,24.3,4.1,37.8-0.8c1.8-0.7,3.7-1.5,5.5-2.5
				c12.5-6.3,23.6-17.1,28-30.6C1383.9,1267,1380.6,1279.8,1368.9,1290.5z"/>
			<path class="st0" d="M1094.5,792.3c-56.5,0-102.4,45.9-102.4,102.4c0,3,0.2,5.9,0.4,8.8c-23.9,0.6-40.8,6.9-49.9,11.5
				c-15.6-36.6-52-62.3-94.2-62.3c-56.5,0-102.4,45.9-102.4,102.4s45.9,102.4,102.4,102.4c56.5,0,102.4-45.9,102.4-102.4
				c0-9.9-1.5-19.6-4.1-28.6c7.6-4,23.8-10.6,47.6-11c9.6,46.5,50.9,81.6,100.3,81.6c56.5,0,102.4-45.9,102.4-102.4
				C1196.9,838.3,1151,792.3,1094.5,792.3z M848.4,1045.6c-49.8,0-90.4-40.6-90.4-90.4s40.6-90.4,90.4-90.4
				c49.8,0,90.4,40.6,90.4,90.4S898.2,1045.6,848.4,1045.6z M1094.5,985.1c-49.8,0-90.4-40.6-90.4-90.4c0-49.8,40.6-90.4,90.4-90.4
				s90.4,40.6,90.4,90.4C1184.9,944.6,1144.4,985.1,1094.5,985.1z"/>
			<g>
				<g>
					<g>
						<path class="st23" d="M949.6,1400.2c25.7,9.7,52.4,14.6,79.5,14.6c9.5,0,19-0.6,28.6-1.8c46.2-5.7,93.7-25.5,141-58.6
							l-1.7-2.5c-0.7-0.8-1.3-1.5-1.9-2.3c-104.9,73.4-190.1,65-243.1,45c-52.4-19.8-84.6-54.4-90.2-60.8c-1,0.3-2.1,0.6-3.2,0.9
							l-2.3,1.9C857.5,1338.3,890.6,1377.9,949.6,1400.2z"/>
						<path class="st23" d="M842.8,1412c8.6,41.4,26.3,97.5,61.3,129.5c19,17.3,41.4,26.1,66.5,26.1c2.4,0,4.9-0.1,7.3-0.2
							c58-3.8,122.4-33.8,181.4-84.5c34.4-29.5,64.1-64.2,84.6-97.6c-1.8-0.8-3.7-1.6-5.5-2.5c-20.1,32.7-49.2,66.6-83,95.6
							c-58,49.8-121.2,79.3-177.9,83.1c-26.5,1.7-49.8-6.4-69.4-24.3c-55.8-50.8-67.2-166.4-69.4-199.2c-1.9,0.2-3.9,0.4-6,0.6
							C833.7,1352.3,836.2,1380.4,842.8,1412z"/>
					</g>
					<path class="st23" d="M958.1,1565.5c1.3-2.6-2.3-5.8-4.9-3.4c-6,5.7-10,13.3-10.7,21.6c-0.5,6.1,1.7,13.7,8.6,15.2
						c6.8,1.5,12.3-4.8,13.6-10.9C966.7,1579.8,962.6,1572.1,958.1,1565.5z"/>
					<path class="st23" d="M877.1,1496.3c0-3.2-4.2-3.8-5.6-1.6c-0.3,0-0.6,0-1,0c-6.4,1.3-13.5,3.1-17,9.1
						c-2.8,4.8-2.7,11.6,2.3,15c4.9,3.3,11.4,2.1,15.4-1.9C876.8,1511.5,877.2,1503.5,877.1,1496.3z"/>
					<path class="st23" d="M1103.2,1520.2c-0.2,0-0.3,0-0.4,0c-1.8-1.5-5.2-0.9-5,2.1c0.5,8,1.5,17.6,5.6,24.7
						c3.1,5.4,9.5,5.7,13.4,0.9C1125.2,1537.5,1114.5,1522.1,1103.2,1520.2z"/>
					<path class="st23" d="M1206.2,1459.9c-7.2-5.7-17.2-6.6-26-5c-2,0.4-2.5,2.1-2,3.6c0,0.1,0,0.2,0.1,0.4
						c2.2,8.4,5.1,17.5,13.1,22.1c6.1,3.5,14.4,2.8,18.8-3.2C1214.8,1471.6,1211.7,1464.2,1206.2,1459.9z"/>
					<path class="st23" d="M918.5,1381.5c-0.3-2.2-2.4-2.6-4-1.8c-1-0.4-2.2-0.4-3.2,0.5c-6.4,5.5-15.9,5.9-20.8,13.4
						c-4,6.1-1.7,13.6,4.6,17.1c6.5,3.7,14.1,1.2,18.8-4.2C919.9,1399.6,919.7,1390.1,918.5,1381.5z"/>
					<path class="st23" d="M1120.8,1412.4c-1.2-6.9-6.7-11.7-12.9-14.4c-1.2-0.5-2.3-0.3-3.1,0.3c-1.6-0.2-3.5,0.7-3.6,2.9
						c-0.4,7.2-5.5,14.3-1.9,21.5c2.7,5.3,9.2,6.9,14.5,4.6C1119.5,1424.7,1121.9,1418.2,1120.8,1412.4z"/>
				</g>
			</g>
			<g>
				
					<linearGradient id="SVGID_12_" gradientUnits="userSpaceOnUse" x1="980.7557" y1="1089.168" x2="841.7606" y2="1089.168" gradientTransform="matrix(0.9973 7.326227e-02 -7.326227e-02 0.9973 173.7636 83.7316)">
					<stop  offset="0" style="stop-color:#E28383"/>
					<stop  offset="1" style="stop-color:#D46F73"/>
				</linearGradient>
				<path class="st24" d="M927.1,1220.4c0,0,246.2-1.6,242.3,5.9c-3.9,7.5-3.3,29.6-57.3,26.8c-54-2.9-104.6,8.5-104.6,8.5
					l-94.2-26.4L927.1,1220.4z"/>
				<linearGradient id="SVGID_13_" gradientUnits="userSpaceOnUse" x1="904.8141" y1="1454.0697" x2="904.8141" y2="2148.0579">
					<stop  offset="0" style="stop-color:#E28383"/>
					<stop  offset="1" style="stop-color:#C6525A"/>
				</linearGradient>
				<path class="st25" d="M629.9,2000c0,0-25.4-474.3-1.1-512.9c24.3-38.6,184.4-293.7,206.2-294.5c21.8-0.8,362.8,107,356.2,118
					c-6.6,11-15.4,22.1-46.3,17.6s-123.5-37.5-123.5-37.5s32,145.6,28.7,147.8s-29.8-5.1-43-38.6l-28.2-112.5l17.2,147.8
					c0,0-19.9,4.4-28.7-14.3c-8.8-18.7-15.4-87.1-22.1-89.3c-2.9-1-11.1-3.2-19.4-5.4c-12.3-3.3-25.3,2.2-31.6,13.3
					c-20.6,36.6-67.8,118.3-109,169.7c-4.4,5.5-21,35.3-12.1,70.6c8.8,35.3,76.1,420.2,76.1,420.2H629.9z"/>
				<path class="st0" d="M1108.3,1221.5c0,0-1.1,14,11.3,17.9c0,0,44.7,10,57.8-15.1L1108.3,1221.5z"/>
				<path class="st0" d="M1138,1286.2c0,0-8.5,17.4,6.4,24s43,17.9,60.4,1.7L1138,1286.2z"/>
				<path class="st0" d="M1042,1388.3c0,0-19,2.7-16.5,24.7c2.1,18.2,9.3,28.3,27.2,32.7L1042,1388.3z"/>
				<path class="st0" d="M991.9,1399.9c0,0-14.1,4.6-14.2,21.5c-0.1,27.9,21,27.9,21,27.9L991.9,1399.9z"/>
			</g>
		</g>
	</g>
</g>
</svg>
